# xmcd
#
# Track frame offsets: 
#        150
#        17227
#        22212
#        26772
#        32965
#        37667
#        41800
#        45807
#        50360
#        54805
#        68035
#        89250
#        116095
#        123517
#        136637
#        154845
#        161500
#        174182
#        179835
#        186130
#        197205
#        208622
#        213295
#        219837
#        243020
#        278262
#        287357
#        294710
#        307775
#
# Disc length: 4613 seconds
#
# Revision: 2
# Processed by: cddbd v1.5.2PL0 Copyright (c) Steve Scherf et al.
# Submitted via: ExactAudioCopy v0.99pb5
#
DISCID=8a12031d
DTITLE=Various Artist - Historische Orgel in Nederland, het  cd 06 - Leeuward
DTITLE=en, Beverwijk, Nijkerk, Schalkwijk
DYEAR=2000
DGENRE=Orgel
TTITLE0=Böhm - Allein Gott in der Höh' sei Ehr · Grote of Jacobijnerke
TTITLE0=rk, Leeuwarden · Jan Jongepier
TTITLE1=Bach - Partite diverse sopra  Ach, was soll ich Sünder machen 
TTITLE1=(1) · Leeuwarden · Jan Jongepier
TTITLE2=Bach - Partite diverse sopra  Ach, was soll ich Sünder machen 
TTITLE2=(2) · Leeuwarden · Jan Jongepier
TTITLE3=Bach - Partite diverse sopra  Ach, was soll ich Sünder machen 
TTITLE3=(3) · Leeuwarden · Jan Jongepier
TTITLE4=Bach - Partite diverse sopra  Ach, was soll ich Sünder machen 
TTITLE4=(4) · Leeuwarden · Jan Jongepier
TTITLE5=Bach - Partite diverse sopra  Ach, was soll ich Sünder machen 
TTITLE5=(5) · Leeuwarden · Jan Jongepier
TTITLE6=Bach - Partite diverse sopra  Ach, was soll ich Sünder machen 
TTITLE6=(6) · Leeuwarden · Jan Jongepier
TTITLE7=Bach - Partite diverse sopra  Ach, was soll ich Sünder machen 
TTITLE7=(7) · Leeuwarden · Jan Jongepier
TTITLE8=Bach - Partite diverse sopra  Ach, was soll ich Sünder machen 
TTITLE8=(8) · Leeuwarden · Jan Jongepier
TTITLE9=Bach - Partite diverse sopra  Ach, was soll ich Sünder machen 
TTITLE9=(9) · Leeuwarden · Jan Jongepier
TTITLE10=Bach - Partite diverse sopra  Ach, was soll ich Sünder machen
TTITLE10=(10) · Leeuwarden · Jan Jongepier
TTITLE11=Homilius - Christ lag in Todesbanden · Grote of Jacobijnerker
TTITLE11=k, Leeuwarden · Jan Jongepier
TTITLE12=Bach - Marche in C BWV Anhang 122 · Grote Kerk, Beverwijk · D
TTITLE12=ick Koomans
TTITLE13=Bach - Jesu, meine Freude BWV 610 uit Orgelbüchlein · Grote K
TTITLE13=erk, Beverwijk · Dick Koomans
TTITLE14=Bach - Jesu, meine Freude BWV 227 uit motet · Grote Kerk, Bev
TTITLE14=erwijk · Dick Koomans
TTITLE15=Bach - Jesu, meine Freude BWV 81 slotkoraal uit cantate · Gro
TTITLE15=te Kerk, Beverwijk · Dick Koomans
TTITLE16=Kellner - Allein Gott in der Höh' sei Ehr · Grote Kerk, Bever
TTITLE16=wijk · Dick Koomans
TTITLE17=Bolt - Variaties over Psalm 43 (1) · Grote Kerk, Beverwijk · 
TTITLE17=Dick Koomans
TTITLE18=Bolt - Variaties over Psalm 43 (2) · Grote Kerk, Beverwijk · 
TTITLE18=Dick Koomans
TTITLE19=Bolt - Variaties over Psalm 43 (3) · Grote Kerk, Beverwijk · 
TTITLE19=Dick Koomans
TTITLE20=Bolt - Variaties over Psalm 43 (4) · Grote Kerk, Beverwijk · 
TTITLE20=Dick Koomans
TTITLE21=Bolt - Variaties over Psalm 43 (5) · Grote Kerk, Beverwijk · 
TTITLE21=Dick Koomans
TTITLE22=Bolt - Variaties over Psalm 43 (6) · Grote Kerk, Beverwijk · 
TTITLE22=Dick Koomans
TTITLE23=Bach - Fantasia in c, BWV 562 · Grote Kerk, Nijkerk · Hans va
TTITLE23=n Nieuwkoop
TTITLE24=Daquin - Noël Nr. 2 en dialogue, duo et trio · Grote Kerk, Ni
TTITLE24=jkerk · Hans van Nieuwkoop
TTITLE25=Hanff - Helft mir, Gottes Güte preisen · Grote Kerk, Nijkerk 
TTITLE25=· Hans van Nieuwkoop
TTITLE26=Bach - Helft mir, Gottes Güte preisen, BWV 613 · Grote Kerk, 
TTITLE26=Nijkerk · Hans van Nieuwkoop
TTITLE27=Bach - Duetto III in G, BWV 804 · St-Michaëlskerk, Schalkwijk
TTITLE27=· Bas de Vroome
TTITLE28=Böhm - Preludium, Fuga en Postludium in g · St-Michaëlskerk, 
TTITLE28=Schalkwijk · Bas de Vroome
EXTD=YEAR: 2000 ID3G:   0
EXTT0=
EXTT1=
EXTT2=
EXTT3=
EXTT4=
EXTT5=
EXTT6=
EXTT7=
EXTT8=
EXTT9=
EXTT10=
EXTT11=
EXTT12=
EXTT13=
EXTT14=
EXTT15=
EXTT16=
EXTT17=
EXTT18=
EXTT19=
EXTT20=
EXTT21=
EXTT22=
EXTT23=
EXTT24=
EXTT25=
EXTT26=
EXTT27=
EXTT28=
PLAYORDER=
